<svg xmlns="http://www.w3.org/2000/svg" viewBox="0 0 1300.34 1188.43"><g id="Ebene_2" data-name="Ebene 2"><g id="Logo"><path d="M1299.63,995.74H445.08c.76-1.83,1.19-3.22,1.88-4.48,21.1-38.55,42.17-77.12,63.54-115.53,1.15-2.07,4.81-3.88,7.31-3.9,20.43-.16,40.85.25,61.28.25q221.67.06,443.35,0c4.91,0,10-.11,14.69-1.29,19.35-4.84,28.6-24.94,19.2-43-11.27-21.68-23.47-42.88-35.32-64.26Q901.83,548.38,782.64,333.31,691.85,169.4,601.09,5.47c-.75-1.36-1.4-2.76-2.71-5.35h7.19c45.36,0,90.73.09,136.1-.12,5,0,7.5,1.8,9.84,6q67.63,122.51,135.56,244.86,79.27,143,158.59,286,69.6,125.64,139.08,251.37,55.54,100.34,111.15,200.64C1297,990.8,1298,992.77,1299.63,995.74Z"/><path d="M551.4,409.86c1.53,2.52,2.83,4.53,4,6.62,21.9,39.39,43.71,78.83,65.79,118.13,2.06,3.67,1.16,6-.54,9.11Q521,726.51,421.43,909.38c-17.47,32.1-34.92,64.22-52,96.54-3.17,6-5.82,12.87-6.36,19.53-1.35,16.4,10.79,29.41,27.27,30.69,2.9.22,5.83.15,8.75.15h901.24c-1.21,2.7-2,4.68-2.95,6.53-21.33,40.21-42.77,80.37-63.91,120.67-2.37,4.51-5.41,4.94-9.71,4.94q-179.89-.12-359.79-.07-364.84-.09-729.69-.22h-8.57Q338.72,798.71,551.4,409.86Z"/><path d="M73.66,1155.65c-5.61-9.68-10.77-18.57-15.91-27.46Q29.8,1079.83,1.81,1031.5c-2.11-3.62-2.57-6.28-.34-10.31q218-394.59,435.6-789.35,52-94.26,103.88-188.57c1.71-3.11,3.54-6.15,5.89-10.24l431.47,778.5c-3.47.16-5.81.36-8.15.36-38.64,0-77.27-.2-115.9.2-7.11.08-10.49-2.39-13.84-8.41q-130.14-234-260.72-467.86c-9.72-17.41-24.65-23.54-40.21-17.11-8.39,3.46-13.36,10.17-17.54,17.83q-47,86.23-94.2,172.41-89,162.59-178.06,325.15Q162.79,992.86,76,1151.66C75.45,1152.64,74.86,1153.59,73.66,1155.65Z"/></g></g></svg>