<?xml version="1.0" encoding="UTF-8"?>
<svg id="Ebene_2" data-name="Ebene 2" xmlns="http://www.w3.org/2000/svg" viewBox="0 0 2018.06 1029.28">
  <defs>
    <style>
      .cls-1 {
        fill: #fff;
      }
    </style>
  </defs>
  <g id="Ebene_2-2" data-name="Ebene 2">
    <g id="Logo">
      <g>
        <path class="cls-1" d="M909.59,450.66L1646.81,18.49c.27,1.97.61,3.39.64,4.82,1.28,43.93,2.61,87.86,3.61,131.8.05,2.37-2.19,5.78-4.34,7.07-17.53,10.47-35.37,20.44-52.98,30.77-127.51,74.7-255,149.45-382.46,224.24-4.24,2.48-8.55,5.15-12.03,8.55-14.25,13.96-12.06,35.98,5.19,46.81,20.69,13,41.93,25.12,62.97,37.58,141.06,83.52,282.14,167.02,423.19,250.55,107.49,63.65,214.95,127.34,322.42,191.01,1.33.79,2.6,1.67,5.04,3.24l-6.19,3.63c-39.14,22.94-78.33,45.81-117.35,68.93-4.33,2.56-7.38,2.24-11.53-.22-80.21-47.65-160.49-95.16-240.79-142.68-93.8-55.51-187.64-110.96-281.42-166.5-82.4-48.79-164.74-97.69-247.11-146.52-65.77-38.98-131.57-77.92-197.36-116.88-1.92-1.14-3.82-2.3-6.71-4.05h0Z"/>
        <path class="cls-1" d="M1222.14.01c.02,2.95.11,5.34.04,7.73-1.35,45.05-2.81,90.1-3.95,135.16-.11,4.21-2.08,5.76-5.13,7.55-119.46,70.67-238.91,141.38-358.31,212.14-31.44,18.63-62.87,37.29-94.08,56.32-5.79,3.53-11.59,8.08-15.46,13.52-9.55,13.4-5.79,30.79,7.72,40.32,2.38,1.67,4.93,3.11,7.44,4.61l774.2,461.35c-2.42,1.7-4.07,3.01-5.88,4.1-38.91,23.62-77.88,47.14-116.68,70.94-4.33,2.66-7.17,1.48-10.87-.73-102.98-61.46-206.03-122.82-309.04-184.24-208.91-124.56-417.82-249.14-626.72-373.72l-7.36-4.39C712.94,300.34,967.16,150.4,1222.14,0h0s0,.01,0,.01Z"/>
        <path class="cls-1" d="M1122.63,923.13c-9.68,5.61-18.56,10.77-27.46,15.91-32.24,18.63-64.51,37.2-96.69,55.94-3.62,2.11-6.27,2.56-10.3.34-263.07-145.3-526.21-290.45-789.36-435.6-62.84-34.66-125.72-69.25-188.58-103.88-3.11-1.71-6.15-3.53-10.24-5.88C259.76,305.99,518.67,162.49,778.5,18.49c.16,3.47.36,5.81.36,8.16.02,38.63-.2,77.27.2,115.89.07,7.11-2.39,10.49-8.41,13.84-156.03,86.76-311.96,173.72-467.86,260.72-17.42,9.72-23.54,24.65-17.12,40.21,3.47,8.4,10.17,13.36,17.83,17.54,57.49,31.36,114.97,62.75,172.41,94.2,108.39,59.34,216.75,118.74,325.15,178.07,105.84,57.93,211.71,115.8,317.56,173.71.98.53,1.92,1.12,3.98,2.32l.03-.02h0Z"/>
      </g>
    </g>
  </g>
</svg>