<?xml version="1.0" encoding="UTF-8"?>
<svg id="Ebene_2" data-name="Ebene 2" xmlns="http://www.w3.org/2000/svg" viewBox="0 0 6285.84 946.07">
  <g id="Left">
    <g>
      <path d="M1327.62,946.07c-5.52,0-10-4.48-10-10V10c0-5.52,4.48-10,10-10s10,4.48,10,10v926.07c0,5.52-4.48,10-10,10Z"/>
      <g>
        <path d="M963.44,759.06H329.95c.56-1.36.88-2.39,1.39-3.32,15.65-28.58,31.27-57.17,47.1-85.65.86-1.54,3.57-2.88,5.42-2.89,15.14-.12,30.28.18,45.42.19,109.55.03,219.11.02,328.66-.02,3.64,0,7.4-.09,10.9-.96,14.34-3.59,21.2-18.49,14.23-31.89-8.36-16.07-17.4-31.79-26.18-47.64-58.9-106.3-117.81-212.59-176.71-318.89-44.88-81-89.73-162.02-134.59-243.03-.56-1-1.04-2.05-2.01-3.96h5.33c33.63,0,67.26.06,100.9-.09,3.73-.02,5.56,1.33,7.29,4.46,33.43,60.54,66.97,121.03,100.5,181.52,39.18,70.67,78.41,141.31,117.56,211.99,34.4,62.1,68.72,124.24,103.1,186.34,27.45,49.59,54.93,99.16,82.4,148.74.8,1.45,1.58,2.91,2.77,5.11h0Z"/>
        <path d="M408.76,324.73c1.13,1.87,2.1,3.36,2.96,4.91,16.23,29.2,32.4,58.44,48.77,87.57,1.53,2.72.86,4.45-.4,6.76-49.26,90.34-98.49,180.7-147.68,271.07-12.95,23.8-25.89,47.61-38.54,71.56-2.35,4.45-4.31,9.54-4.72,14.48-1,12.16,8,21.8,20.22,22.75,2.15.17,4.33.11,6.49.11h668.11c-.9,2-1.46,3.46-2.19,4.84-15.81,29.81-31.71,59.58-47.38,89.46-1.75,3.34-4.01,3.66-7.19,3.66-88.91-.06-177.82-.03-266.72-.05-180.31-.04-360.62-.11-540.93-.16h-6.36c105.27-192.46,210.26-384.42,315.57-576.96h-.01Z"/>
        <path d="M54.6,877.6c-4.16-7.17-7.98-13.76-11.79-20.36-13.81-23.9-27.58-47.83-41.47-71.68-1.56-2.68-1.9-4.65-.25-7.64,107.71-195.01,215.32-390.09,322.92-585.16,25.7-46.58,51.33-93.2,77.01-139.8,1.27-2.3,2.62-4.56,4.36-7.59,106.73,192.57,213.1,384.5,319.86,577.12-2.57.12-4.31.26-6.05.27-28.64.01-57.28-.15-85.92.15-5.27.05-7.78-1.77-10.26-6.23-64.32-115.67-128.78-231.26-193.28-346.83-7.21-12.91-18.27-17.45-29.81-12.69-6.22,2.57-9.9,7.54-13,13.22-23.24,42.62-46.52,85.23-69.83,127.81-43.99,80.36-88.02,160.68-132,241.04-42.94,78.46-85.85,156.94-128.77,235.41-.4.72-.83,1.43-1.72,2.95h0Z"/>
      </g>
      <g>
        <path d="M1662,595.79h46.47c4.29,48.62,49.33,95.09,118.69,95.09,78.65,0,117.26-51.48,117.26-97.95,0-53.62-47.19-79.37-95.81-91.52l-66.49-15.73c-102.25-24.31-116.54-83.65-116.54-122.98,0-81.51,75.08-137.28,156.58-137.28s149.43,51.48,152.29,133.7h-46.47c-2.86-54.34-48.62-89.37-107.25-89.37s-107.96,37.89-107.96,92.95c0,22.88,7.15,61.49,80.08,79.37l67.21,17.16c77.93,19.31,131.56,60.06,131.56,131.56s-57.2,144.43-164.45,144.43c-97.24,0-161.59-67.92-165.16-139.42h0Z"/>
        <path d="M2394.15,578.63h-287.43c7.86,71.5,57.91,112.97,125.12,112.97,45.76,0,86.51-22.17,108.68-58.63l39.32,17.16c-29.31,53.62-86.51,85.08-149.43,85.08-94.38,0-169.45-70.79-169.45-176.6s75.07-174.46,169.45-174.46,165.16,68.64,165.16,174.46c0,6.43-.71,13.58-1.43,20.02h0ZM2349.82,539.3c-6.44-69.35-54.34-111.54-119.4-111.54s-113.68,40.04-122.98,111.54h242.38,0Z"/>
        <path d="M2795.98,578.63h-287.43c7.86,71.5,57.91,112.97,125.12,112.97,45.76,0,86.51-22.17,108.68-58.63l39.32,17.16c-29.31,53.62-86.51,85.08-149.43,85.08-94.38,0-169.45-70.79-169.45-176.6s75.07-174.46,169.45-174.46,165.16,68.64,165.16,174.46c0,6.43-.71,13.58-1.43,20.02h0ZM2751.65,539.3c-6.44-69.35-54.34-111.54-119.4-111.54s-113.68,40.04-122.98,111.54h242.38Z"/>
        <path d="M2886.78,726.63V211.12h45.76v515.51h-45.76Z"/>
        <path d="M3034.79,269.75c0-19.3,16.44-32.89,35.04-32.89,20.02,0,35.75,13.58,35.75,32.89s-15.73,32.17-35.75,32.17c-18.59,0-35.04-13.58-35.04-32.17ZM3046.94,726.63v-333.9h45.76v333.9h-45.76Z"/>
        <path d="M3486.66,392.73h45.76v288.14c0,161.59-72.21,216.64-180.89,216.64-56.48,0-111.54-27.88-144.43-82.22l38.61-21.45c24.31,40.04,65.78,60.06,105.82,60.06,81.51,0,135.13-41.47,135.13-170.17v-21.45c-25.03,45.04-77.22,72.93-132.99,72.93-92.95,0-169.46-74.36-169.46-175.89s75.79-175.17,169.46-175.17c56.48,0,107.96,27.88,132.99,72.93v-64.35h0ZM3486.66,560.75c0-80.79-62.92-132.99-129.42-132.99-70.07,0-127.27,57.2-127.27,130.84s57.2,132.99,127.27,132.99,129.42-53.62,129.42-130.84Z"/>
        <path d="M4036.49,234c139.42,0,220.22,107.25,220.22,247.39s-80.79,245.24-220.22,245.24h-186.61V234h186.61ZM4036.49,682.3c112.25,0,173.03-87.23,173.03-200.91s-60.78-203.06-173.03-203.06h-139.42v403.97h139.42Z"/>
        <path d="M4664.25,578.63h-287.43c7.86,71.5,57.91,112.97,125.12,112.97,45.76,0,86.51-22.17,108.68-58.63l39.32,17.16c-29.31,53.62-86.51,85.08-149.43,85.08-94.38,0-169.45-70.79-169.45-176.6s75.07-174.46,169.45-174.46,165.16,68.64,165.16,174.46c0,6.43-.71,13.58-1.43,20.02h.01ZM4619.93,539.3c-6.44-69.35-54.34-111.54-119.4-111.54s-113.68,40.04-122.98,111.54h242.38Z"/>
        <path d="M4727.89,637.97h42.18c5,27.88,30.75,56.49,79.36,56.49s77.22-25.03,77.22-58.63c0-27.17-18.59-45.04-52.91-53.62l-47.9-11.44c-47.19-11.44-85.08-35.75-85.08-91.52s46.48-95.09,110.11-95.09c55.77,0,107.25,30.75,109.39,90.8h-44.33c-2.15-30.03-31.46-50.05-64.35-50.05-38.61,0-65.07,23.59-65.07,55.05s27.17,45.04,51.48,50.76l49.33,12.16c65.07,15.73,85.08,55.05,85.08,93.66,0,59.34-53.62,98.67-122.98,98.67-57.92,0-115.83-33.61-121.55-97.24h.02Z"/>
        <path d="M5049.63,269.75c0-19.3,16.44-32.89,35.03-32.89,20.02,0,35.75,13.58,35.75,32.89s-15.73,32.17-35.75,32.17c-18.59,0-35.03-13.58-35.03-32.17ZM5061.78,726.63v-333.9h45.76v333.9h-45.76Z"/>
        <path d="M5501.51,392.73h45.76v288.14c0,161.59-72.21,216.64-180.89,216.64-56.48,0-111.54-27.88-144.43-82.22l38.61-21.45c24.31,40.04,65.78,60.06,105.82,60.06,81.51,0,135.13-41.47,135.13-170.17v-21.45c-25.03,45.04-77.22,72.93-132.99,72.93-92.95,0-169.45-74.36-169.45-175.89s75.79-175.17,169.45-175.17c56.48,0,107.96,27.88,132.99,72.93v-64.35h0ZM5501.51,560.75c0-80.79-62.92-132.99-129.42-132.99-70.07,0-127.27,57.2-127.27,130.84s57.2,132.99,127.27,132.99,129.42-53.62,129.42-130.84Z"/>
        <path d="M5959.1,532.15v194.48h-45.76v-192.33c0-64.35-40.75-105.1-94.38-105.1s-110.11,31.46-111.54,112.25v185.18h-45.76v-333.9h45.76v60.06c20.02-47.91,74.36-68.64,115.83-68.64,80.79,0,135.85,55.77,135.85,148h0Z"/>
        <path d="M6041.31,637.97h42.18c5,27.88,30.75,56.49,79.36,56.49s77.22-25.03,77.22-58.63c0-27.17-18.59-45.04-52.91-53.62l-47.9-11.44c-47.19-11.44-85.08-35.75-85.08-91.52s46.48-95.09,110.11-95.09c55.77,0,107.25,30.75,109.39,90.8h-44.33c-2.15-30.03-31.46-50.05-64.35-50.05-38.61,0-65.07,23.59-65.07,55.05s27.17,45.04,51.48,50.76l49.33,12.16c65.07,15.73,85.08,55.05,85.08,93.66,0,59.34-53.62,98.67-122.98,98.67-57.92,0-115.83-33.61-121.55-97.24h.02Z"/>
      </g>
    </g>
  </g>
</svg>