<?xml version="1.0" encoding="UTF-8"?>
<svg id="Ebene_2" data-name="Ebene 2" xmlns="http://www.w3.org/2000/svg" viewBox="0 0 1300.34 1188.43">
  <g id="Logo">
    <g>
      <path d="M1299.63,995.74H445.08c.76-1.84,1.19-3.23,1.88-4.48,21.11-38.55,42.18-77.12,63.54-115.53,1.15-2.07,4.81-3.88,7.32-3.9,20.42-.17,40.85.25,61.27.25,147.78.04,295.57.03,443.35-.03,4.91,0,9.98-.12,14.7-1.29,19.35-4.84,28.6-24.94,19.2-43.01-11.27-21.68-23.47-42.88-35.32-64.27-79.45-143.39-158.93-286.77-238.37-430.17-60.54-109.27-121.04-218.56-181.55-327.84-.75-1.35-1.4-2.76-2.71-5.35h7.18C650.94.12,696.31.21,741.67,0c5.03-.02,7.5,1.8,9.84,6.02,45.1,81.67,90.33,163.26,135.57,244.86,52.85,95.33,105.76,190.62,158.58,285.96,46.41,83.76,92.71,167.59,139.08,251.37,37.03,66.89,74.1,133.76,111.15,200.64,1.08,1.95,2.13,3.92,3.74,6.89h0Z"/>
      <path d="M551.4,409.86c1.53,2.52,2.83,4.53,3.99,6.62,21.9,39.39,43.71,78.84,65.79,118.13,2.06,3.67,1.16,6.01-.54,9.11-66.45,121.86-132.86,243.75-199.21,365.66-17.47,32.1-34.92,64.22-51.99,96.54-3.17,6-5.82,12.87-6.36,19.53-1.34,16.4,10.79,29.41,27.27,30.69,2.9.22,5.83.15,8.75.15h901.24c-1.21,2.7-1.96,4.67-2.95,6.53-21.33,40.21-42.77,80.36-63.92,120.67-2.36,4.5-5.4,4.94-9.71,4.94-119.93-.08-239.86-.04-359.79-.07-243.23-.06-486.46-.14-729.69-.22h-8.57c142-259.62,283.63-518.56,425.68-778.29h.01Z"/>
      <path d="M73.66,1155.65c-5.61-9.68-10.77-18.56-15.91-27.46-18.63-32.24-37.2-64.51-55.94-96.69-2.11-3.62-2.56-6.27-.34-10.3C146.77,758.13,291.92,494.99,437.07,231.84c34.66-62.84,69.25-125.72,103.88-188.58,1.71-3.11,3.53-6.15,5.88-10.24,143.97,259.76,287.47,518.67,431.47,778.5-3.47.16-5.81.36-8.16.36-38.63.02-77.27-.2-115.89.2-7.11.07-10.49-2.39-13.84-8.41-86.76-156.03-173.72-311.96-260.72-467.86-9.72-17.42-24.65-23.54-40.21-17.12-8.4,3.47-13.36,10.17-17.54,17.83-31.36,57.49-62.75,114.97-94.2,172.41-59.34,108.39-118.74,216.75-178.07,325.15-57.93,105.84-115.8,211.71-173.71,317.56-.53.98-1.12,1.92-2.32,3.98l.02.03Z"/>
    </g>
  </g>
</svg>